<svg width="14" height="14" viewBox="0 0 14 14" fill="none" xmlns="http://www.w3.org/2000/svg">
<g clip-path="url(#clip0_91_55919)">
<path d="M4.3771 11.543L3.50305 13.12" stroke="#485B80" stroke-width="1.2" stroke-linecap="round" stroke-linejoin="round"/>
<path d="M9.6228 11.543L10.4968 13.12" stroke="#485B80" stroke-width="1.2" stroke-linecap="round" stroke-linejoin="round"/>
<path d="M6.99999 12.2456C9.89692 12.2456 12.2453 9.89716 12.2453 7.00023C12.2453 4.10331 9.89692 1.75488 6.99999 1.75488C4.10306 1.75488 1.75464 4.10331 1.75464 7.00023C1.75464 9.89716 4.10306 12.2456 6.99999 12.2456Z" stroke="#485B80" stroke-width="1.2" stroke-linecap="round" stroke-linejoin="round"/>
<path d="M1.9302 5.60214C1.52751 5.30031 1.22016 4.889 1.04482 4.41727C0.869484 3.94555 0.833569 3.43335 0.941361 2.94177C1.04915 2.4502 1.2961 2.00002 1.65273 1.64495C2.00937 1.28988 2.46063 1.04491 2.95267 0.939283C3.44471 0.833653 3.95676 0.871818 4.4277 1.04922C4.89865 1.22663 5.30861 1.53579 5.60866 1.93981" stroke="#485B80" stroke-width="1.2" stroke-linecap="round" stroke-linejoin="round"/>
<path d="M7 1.75508L7.00004 0.880859" stroke="#485B80" stroke-width="1.2" stroke-linecap="round" stroke-linejoin="round"/>
<path d="M7 4.37793V7.00059" stroke="#485B80" stroke-width="1.2" stroke-linecap="round" stroke-linejoin="round"/>
<path d="M7 7L8.8545 8.8545" stroke="#485B80" stroke-width="1.2" stroke-linecap="round" stroke-linejoin="round"/>
<path d="M12.0699 5.60214C12.4726 5.30031 12.78 4.889 12.9553 4.41727C13.1307 3.94555 13.1666 3.43335 13.0588 2.94177C12.951 2.4502 12.704 2.00002 12.3474 1.64495C11.9908 1.28988 11.5395 1.04491 11.0475 0.939283C10.5554 0.833653 10.0434 0.871818 9.57244 1.04923C9.10149 1.22663 8.69154 1.53579 8.39148 1.93981" stroke="#485B80" stroke-width="1.2" stroke-linecap="round" stroke-linejoin="round"/>
</g>
<defs>
<clipPath id="clip0_91_55919">
<rect width="14" height="14" fill="white"/>
</clipPath>
</defs>
</svg>
